@startuml

skinparam componentStyle uml2
skinparam monochrome true

hide circle

footer Firestore

database Collections {
    entity users {
        * id <<firebase_id>>
        * name
        * email
        ---
        profile_pic
    }

    entity reviews {
        * id <<autogenerated>>
        * user_id
        * movie_id
        * score
        * timestamp
        ---
        message
    }

    entity friends {
        * id
        * friend_of
    }

    entity followers {
        * id
        * followed_by
    }

    entity movies {
    }

    entity movies_lite {
    }

    entity movies_search {
    }

    entity movies_suggestions {
    }
}

followers --> users
friends --> users
reviews -right-> users
reviews -left-> movies
movies_suggestions --> movies
movies_lite --> movies
movies_search --> movies

@enduml